<?xml version="1.0" encoding="utf-8"?>
<!-- Generator: Adobe Illustrator 23.0.3, SVG Export Plug-In . SVG Version: 6.00 Build 0)  -->
<svg version="1.1" id="Layer_1" xmlns="http://www.w3.org/2000/svg" xmlns:xlink="http://www.w3.org/1999/xlink" x="0px" y="0px"
	 viewBox="0 0 120 140" style="enable-background:new 0 0 120 140;" xml:space="preserve">
<style type="text/css">
	.st0{filter:url(#empty_state_file_happy-a);}
	.st1{fill-rule:evenodd;clip-rule:evenodd;}
	.st2{fill-rule:evenodd;clip-rule:evenodd;fill:url(#SVGID_1_);}
	.st3{filter:url(#Adobe_OpacityMaskFilter);}
	.st4{fill-rule:evenodd;clip-rule:evenodd;fill:#FFFFFF;}
	.st5{mask:url(#empty_state_file_happy-e_1_);}
	.st6{fill:none;stroke:#A1ACBA;stroke-width:2;}
	.st7{filter:url(#Adobe_OpacityMaskFilter_1_);}
	.st8{mask:url(#empty_state_file_happy-e_2_);fill:none;stroke:#A1ACBA;stroke-width:2;}
	.st9{filter:url(#Adobe_OpacityMaskFilter_2_);}
	.st10{opacity:7.000000e-02;mask:url(#empty_state_file_happy-e_3_);}
	.st11{fill:none;stroke:#A1ACBA;stroke-width:2;stroke-linecap:round;}
	.st12{fill:none;stroke:#A1ACBA;stroke-width:2;stroke-linecap:round;stroke-linejoin:round;}
	.st13{fill-rule:evenodd;clip-rule:evenodd;fill:#A1ACBA;}
</style>
<filter  filterUnits="objectBoundingBox" height="112.5%" id="empty_state_file_happy-a" width="112.5%" x="-6.2%" y="-4.5%">
	<feOffset  dy="2" in="SourceAlpha" result="shadowOffsetOuter1"></feOffset>
	<feGaussianBlur  in="shadowOffsetOuter1" result="shadowBlurOuter1" stdDeviation="2"></feGaussianBlur>
	<feColorMatrix  in="shadowBlurOuter1" values="0 0 0 0 0   0 0 0 0 0   0 0 0 0 0  0 0 0 0.106063179 0"></feColorMatrix>
</filter>
<g transform="translate(4 2)">
	<g class="st0">
		<circle id="empty_state_file_happy-b_1_" class="st1" cx="56" cy="76.6" r="56"/>
	</g>
	<g>
		
			<linearGradient id="SVGID_1_" gradientUnits="userSpaceOnUse" x1="-41.7984" y1="167.7021" x2="-42.4541" y2="168.7021" gradientTransform="matrix(112 0 0 -112 4777 18919.6133)">
			<stop  offset="0" style="stop-color:#2677ED"/>
			<stop  offset="1" style="stop-color:#4285F4"/>
		</linearGradient>
		<circle class="st2" cx="56" cy="76.6" r="56"/>
	</g>
	<g transform="translate(0 10)">
		<defs>
			<filter id="Adobe_OpacityMaskFilter" filterUnits="userSpaceOnUse" x="14" y="6" width="86.5" height="125.8">
				<feColorMatrix  type="matrix" values="1 0 0 0 0  0 1 0 0 0  0 0 1 0 0  0 0 0 1 0"/>
			</filter>
		</defs>
		<mask maskUnits="userSpaceOnUse" x="14" y="6" width="86.5" height="125.8" id="empty_state_file_happy-e_1_">
			<g class="st3">
				<path id="empty_state_file_happy-d_1_" class="st4" d="M56,122.8c30.9,0,56-25.1,56-56.1c0-7,0-29.2,0-66.7H0
					c0,23.8,0,46,0,66.7C0,97.7,25.1,122.8,56,122.8z"/>
			</g>
		</mask>
		<g class="st5">
			<g>
				<path id="empty_state_file_happy-f" class="st4" d="M22,6h62.3l16.2,16.5v92.3l0,0c0,9.4-7.6,17-17,17H31l0,0
					c-9.4,0-17-7.6-17-17V14l0,0C14,9.6,17.6,6,22,6z"/>
			</g>
			<path class="st6" d="M99.5,23L83.9,7H22c-3.9,0-7,3.1-7,7v100.8c0,8.8,7.2,16,16,16h52.5c8.8,0,16-7.2,16-16V23z"/>
		</g>
		<defs>
			<filter id="Adobe_OpacityMaskFilter_1_" filterUnits="userSpaceOnUse" x="83.4" y="6.7" width="16.6" height="16.5">
				<feColorMatrix  type="matrix" values="1 0 0 0 0  0 1 0 0 0  0 0 1 0 0  0 0 0 1 0"/>
			</filter>
		</defs>
		<mask maskUnits="userSpaceOnUse" x="83.4" y="6.7" width="16.6" height="16.5" id="empty_state_file_happy-e_2_">
			<g class="st7">
				<path id="empty_state_file_happy-d_2_" class="st4" d="M56,122.8c30.9,0,56-25.1,56-56.1c0-7,0-29.2,0-66.7H0
					c0,23.8,0,46,0,66.7C0,97.7,25.1,122.8,56,122.8z"/>
			</g>
		</mask>
		<path class="st8" d="M84.6,9c-0.1,3.6-0.3,9.1-0.1,9.8c0.2,0.6,0.5,1,1.2,1.8c0.4,0.4,1,0.8,1.6,1c1.1,0.4,2.5,0.6,4.8,0.6
			c0.8,0,3.4,0,5.5-0.1L84.6,9z"/>
		<defs>
			<filter id="Adobe_OpacityMaskFilter_2_" filterUnits="userSpaceOnUse" x="23" y="81" width="68.8" height="37.3">
				<feColorMatrix  type="matrix" values="1 0 0 0 0  0 1 0 0 0  0 0 1 0 0  0 0 0 1 0"/>
			</filter>
		</defs>
		<mask maskUnits="userSpaceOnUse" x="23" y="81" width="68.8" height="37.3" id="empty_state_file_happy-e_3_">
			<g class="st9">
				<path id="empty_state_file_happy-d_3_" class="st4" d="M56,122.8c30.9,0,56-25.1,56-56.1c0-7,0-29.2,0-66.7H0
					c0,23.8,0,46,0,66.7C0,97.7,25.1,122.8,56,122.8z"/>
			</g>
		</mask>
		<g class="st10">
			<g transform="translate(23 81)">
				<rect class="st1" width="46.7" height="6.2"/>
				<rect y="8.7" class="st1" width="68.8" height="6.2"/>
				<rect y="20.5" class="st1" width="42.3" height="6.2"/>
				<rect y="31.1" class="st1" width="52.4" height="6.2"/>
			</g>
		</g>
	</g>
	<path class="st11" d="M13,14L4,5 M18,9V0 M1,20h9"/>
	<g transform="translate(28.491 43.21)">
		<path class="st12" d="M11.5,17.8c16.5,9,33,0,33,0"/>
		<circle class="st13" cx="48" cy="5.3" r="3.5"/>
		<circle class="st13" cx="8" cy="5.3" r="3.5"/>
	</g>
</g>
</svg>
